<?xml version="1.0" encoding="UTF-8"?>
<!-- Generator: Adobe Illustrator 21.0.0, SVG Export Plug-In . SVG Version: 6.00 Build 0)  -->
<svg xmlns="http://www.w3.org/2000/svg" xmlns:xlink="http://www.w3.org/1999/xlink" version="1.1" id="Capa_1" x="0px" y="0px" viewBox="0 0 501 110" style="enable-background:new 0 0 501 110;" xml:space="preserve">
<style type="text/css">
	.st0{fill:#009EE0;}
</style>
<g>
	<path d="M30.458,49.526c4.276,0,8.332,0.795,12.169,2.394c3.841,1.592,7.018,3.922,9.526,6.983   c0.475,0.604,0.823,1.256,1.021,1.928c0.207,0.683,0.303,1.298,0.303,1.837c0,1.632-0.602,3.059-1.832,4.279   c-1.226,1.226-2.614,1.828-4.175,1.828c-1.428,0-2.719-0.567-3.871-1.727c-1.767-1.761-3.77-3.17-6.012-4.227   c-2.243-1.051-4.627-1.576-7.13-1.576c-2.587,0-4.983,0.473-7.182,1.424c-2.213,0.956-4.132,2.26-5.758,3.925   c-1.634,1.662-2.921,3.62-3.873,5.856c-0.952,2.241-1.428,4.615-1.428,7.126c0,2.514,0.476,4.877,1.428,7.083   c0.952,2.205,2.239,4.128,3.873,5.753c1.626,1.634,3.545,2.924,5.758,3.876c2.199,0.956,4.596,1.427,7.182,1.427   c2.503,0,4.886-0.464,7.13-1.373c2.242-0.919,4.176-2.26,5.808-4.026c0.677-0.68,1.342-1.137,1.99-1.376   c0.64-0.241,1.336-0.359,2.085-0.359c1.561,0,2.989,0.574,4.276,1.734c1.295,1.153,1.94,2.545,1.94,4.173   c0,1.362-0.61,2.717-1.833,4.079c-2.788,2.856-6.031,5.044-9.73,6.571c-3.705,1.53-7.591,2.294-11.666,2.294   c-4.145,0-8.036-0.781-11.668-2.342c-3.64-1.561-6.817-3.686-9.529-6.364c-2.721-2.69-4.862-5.842-6.424-9.479   C1.275,87.608,0.5,83.723,0.5,79.576c0-4.139,0.775-8.026,2.338-11.66c1.561-3.631,3.703-6.808,6.424-9.527   c2.711-2.715,5.889-4.876,9.529-6.468C22.422,50.321,26.313,49.526,30.458,49.526z M85.58,49.526c4.14,0,8.037,0.795,11.668,2.394   c3.633,1.592,6.808,3.754,9.526,6.468c2.719,2.72,4.855,5.896,6.419,9.527c1.562,3.634,2.346,7.52,2.346,11.66   c0,4.147-0.784,8.032-2.346,11.67c-1.564,3.637-3.701,6.789-6.419,9.479c-2.719,2.678-5.894,4.803-9.526,6.364   c-3.63,1.561-7.528,2.342-11.668,2.342c-4.145,0-8.033-0.781-11.668-2.342c-3.635-1.561-6.809-3.686-9.526-6.364   c-2.719-2.69-4.86-5.842-6.415-9.479c-1.573-3.638-2.344-7.523-2.344-11.67c0-4.139,0.771-8.026,2.344-11.66   c1.555-3.631,3.697-6.808,6.415-9.527c2.718-2.715,5.892-4.876,9.526-6.468C77.546,50.321,81.435,49.526,85.58,49.526z    M85.58,61.245c-2.58,0-4.975,0.473-7.179,1.424c-2.216,0.956-4.135,2.26-5.765,3.925c-1.626,1.662-2.919,3.62-3.866,5.856   c-0.954,2.241-1.438,4.615-1.438,7.126c0,2.514,0.484,4.877,1.438,7.083c0.946,2.205,2.239,4.128,3.866,5.753   c1.63,1.634,3.549,2.924,5.765,3.876c2.204,0.956,4.599,1.427,7.179,1.427c2.513,0,4.874-0.471,7.078-1.427   c2.214-0.952,4.147-2.242,5.809-3.876c1.668-1.625,2.974-3.549,3.931-5.753c0.945-2.206,1.421-4.569,1.421-7.083   c0-2.511-0.475-4.884-1.421-7.126c-0.957-2.236-2.262-4.194-3.931-5.856c-1.662-1.665-3.595-2.969-5.809-3.925   C90.453,61.718,88.093,61.245,85.58,61.245z M124.301,50.852c3.323,0,5.301,1.699,5.91,5.094c1.765-1.97,3.937-3.531,6.519-4.69   c2.59-1.151,5.469-1.73,8.664-1.73c3.665,0,6.992,0.661,9.986,1.987c2.99,1.327,5.532,3.139,7.641,5.451   c2.102,2.307,3.721,5.039,4.841,8.205c1.119,3.153,1.681,6.564,1.681,10.235v26.997c0,1.832-0.527,3.261-1.577,4.282   c-1.058,1.017-2.467,1.525-4.236,1.525c-1.694,0-3.087-0.508-4.176-1.525c-1.079-1.021-1.622-2.45-1.622-4.282V75.404   c0-1.968-0.312-3.822-0.922-5.551c-0.615-1.729-1.48-3.242-2.601-4.535c-1.121-1.292-2.495-2.307-4.122-3.056   c-1.628-0.748-3.471-1.123-5.503-1.123c-2.039,0-3.909,0.375-5.61,1.123c-1.693,0.748-3.153,1.747-4.379,3.006   c-1.219,1.257-2.158,2.752-2.799,4.48c-0.648,1.73-0.975,3.617-0.975,5.655v26.997c0,1.832-0.518,3.261-1.572,4.282   c-1.057,1.017-2.504,1.525-4.331,1.525c-1.631,0-3.003-0.508-4.128-1.525c-1.125-1.021-1.679-2.45-1.679-4.282V55.946   c0-1.564,0.485-2.806,1.476-3.719C121.773,51.307,122.936,50.852,124.301,50.852z M187.678,51.359h3.669   c1.761,0,3.174,0.526,4.229,1.58c1.049,1.051,1.58,2.495,1.58,4.336c0,1.63-0.531,3.005-1.58,4.122   c-1.055,1.12-2.468,1.682-4.229,1.682h-3.669v27.093c0,1.362,0.188,2.451,0.558,3.261c0.376,0.809,0.899,1.463,1.58,1.937   c0.682,0.476,1.427,0.816,2.242,1.021c0.815,0.2,1.698,0.343,2.654,0.409c1.561,0.13,2.764,0.726,3.615,1.781   c0.849,1.052,1.27,2.46,1.27,4.23c0,1.624-0.573,2.941-1.733,3.917c-1.148,0.989-2.851,1.481-5.09,1.481   c-2.382,0-4.581-0.344-6.624-1.021c-2.039-0.675-3.818-1.742-5.349-3.207c-1.531-1.464-2.722-3.327-3.566-5.604   c-0.846-2.28-1.276-4.976-1.276-8.097v-27.2c-1.556-0.206-2.766-0.853-3.62-1.938c-0.847-1.087-1.271-2.373-1.271-3.866   c0-1.635,0.424-2.978,1.271-4.029c0.854-1.054,2.064-1.645,3.62-1.783V34.239c0-1.829,0.565-3.273,1.685-4.331   c1.119-1.049,2.495-1.572,4.124-1.572c1.836,0,3.283,0.524,4.332,1.572c1.055,1.059,1.579,2.502,1.579,4.331V51.359z    M207.543,50.852c1.702,0,2.959,0.526,3.774,1.579c0.817,1.054,1.29,2.495,1.43,4.329c1.963-2.174,4.109-3.732,6.411-4.686   c2.313-0.952,5.001-1.428,8.05-1.428c1.706,0,3.112,0.457,4.233,1.374c1.123,0.919,1.685,2.398,1.685,4.434   c0,1.628-0.41,2.941-1.223,3.922c-0.819,0.985-2.106,1.548-3.875,1.685c-2.923,0.201-5.336,0.645-7.235,1.325   c-1.902,0.676-3.396,1.613-4.487,2.803c-1.088,1.183-1.828,2.611-2.24,4.272c-0.406,1.669-0.609,3.516-0.609,5.554v26.795   c0,1.494-0.525,2.763-1.576,3.819c-1.057,1.057-2.464,1.578-4.233,1.578c-1.769,0-3.193-0.522-4.278-1.578   c-1.087-1.057-1.63-2.36-1.63-3.923V57.275c0-1.77,0.424-3.285,1.273-4.541C203.864,51.478,205.372,50.852,207.543,50.852z    M258.188,49.526c4.145,0,8.033,0.795,11.674,2.394c3.628,1.592,6.801,3.754,9.522,6.468c2.717,2.72,4.855,5.896,6.417,9.527   c1.567,3.634,2.348,7.52,2.348,11.66c0,4.147-0.782,8.032-2.348,11.67c-1.562,3.637-3.701,6.789-6.417,9.479   c-2.721,2.678-5.894,4.803-9.522,6.364c-3.641,1.561-7.53,2.342-11.674,2.342c-4.14,0-8.027-0.781-11.666-2.342   c-3.635-1.561-6.809-3.686-9.525-6.364c-2.722-2.69-4.857-5.842-6.42-9.479c-1.561-3.638-2.347-7.523-2.347-11.67   c0-4.139,0.786-8.026,2.347-11.66c1.562-3.631,3.698-6.808,6.42-9.527c2.717-2.715,5.891-4.876,9.525-6.468   C250.161,50.321,254.047,49.526,258.188,49.526z M258.188,61.245c-2.58,0-4.975,0.473-7.183,1.424   c-2.208,0.956-4.125,2.26-5.758,3.925c-1.626,1.662-2.919,3.62-3.868,5.856c-0.956,2.241-1.427,4.615-1.427,7.126   c0,2.514,0.471,4.877,1.427,7.083c0.949,2.205,2.241,4.128,3.868,5.753c1.634,1.634,3.551,2.924,5.758,3.876   c2.209,0.956,4.603,1.427,7.183,1.427c2.515,0,4.878-0.471,7.087-1.427c2.206-0.952,4.14-2.242,5.809-3.876   c1.662-1.625,2.965-3.549,3.918-5.753c0.952-2.206,1.426-4.569,1.426-7.083c0-2.511-0.474-4.884-1.426-7.126   c-0.953-2.236-2.256-4.194-3.918-5.856c-1.668-1.665-3.603-2.969-5.809-3.925C263.066,61.718,260.703,61.245,258.188,61.245z    M303.632,102.3c0,1.834-0.522,3.273-1.58,4.329c-1.05,1.057-2.495,1.578-4.329,1.578c-1.628,0-3.007-0.522-4.124-1.578   c-1.125-1.057-1.681-2.495-1.681-4.329V34.141c0-1.768,0.556-3.175,1.681-4.233c1.116-1.049,2.495-1.572,4.124-1.572   c1.834,0,3.279,0.524,4.329,1.572c1.058,1.059,1.58,2.465,1.58,4.233V102.3z M314.538,50.852c3.325,0,5.299,1.699,5.91,5.094   c1.763-1.97,3.936-3.531,6.52-4.69c2.582-1.151,5.472-1.73,8.656-1.73c3.677,0,6.997,0.661,9.993,1.987   c2.984,1.327,5.535,3.139,7.639,5.451c2.109,2.307,3.72,5.039,4.842,8.205c1.124,3.153,1.684,6.564,1.684,10.235v26.997   c0,1.832-0.532,3.261-1.585,4.282c-1.05,1.017-2.456,1.525-4.223,1.525c-1.707,0-3.102-0.508-4.18-1.525   c-1.087-1.021-1.631-2.45-1.631-4.282V75.404c0-1.968-0.306-3.822-0.915-5.551c-0.613-1.729-1.477-3.242-2.606-4.535   c-1.117-1.292-2.491-2.307-4.119-3.056c-1.632-0.748-3.465-1.123-5.507-1.123c-2.036,0-3.901,0.375-5.603,1.123   c-1.698,0.748-3.158,1.747-4.38,3.006c-1.229,1.257-2.157,2.752-2.804,4.48c-0.648,1.73-0.967,3.617-0.967,5.655v26.997   c0,1.832-0.529,3.261-1.579,4.282c-1.052,1.017-2.496,1.525-4.33,1.525c-1.63,0-3.009-0.508-4.126-1.525   c-1.125-1.021-1.685-2.45-1.685-4.282V55.946c0-1.564,0.495-2.806,1.477-3.719C312.009,51.307,313.176,50.852,314.538,50.852z    M393.713,49.526c4.073,0,7.925,0.781,11.56,2.34c3.636,1.566,6.808,3.656,9.527,6.267c2.718,2.618,4.873,5.68,6.47,9.171   c1.596,3.497,2.394,7.184,2.394,11.053c0,1.973-0.51,3.461-1.528,4.485c-1.015,1.018-2.443,1.52-4.279,1.52h-41.371   c0.339,1.907,1.053,3.668,2.142,5.303c1.083,1.633,2.425,3.039,4.021,4.229c1.6,1.18,3.346,2.12,5.253,2.806   c1.898,0.674,3.835,1.016,5.811,1.016c2.507,0,4.819-0.438,6.924-1.324c2.105-0.884,3.975-2.149,5.605-3.768   c0.678-0.615,1.426-1.107,2.241-1.483c0.816-0.371,1.596-0.559,2.342-0.559c1.569,0,2.869,0.574,3.927,1.734   c1.046,1.153,1.577,2.513,1.577,4.075c0,0.81-0.103,1.592-0.306,2.343c-0.2,0.746-0.613,1.424-1.223,2.038   c-2.65,2.921-5.775,5.095-9.377,6.521c-3.593,1.426-7.508,2.138-11.71,2.138c-4.146,0-8.038-0.781-11.67-2.342   c-3.634-1.561-6.815-3.686-9.531-6.364c-2.712-2.69-4.86-5.842-6.42-9.479c-1.562-3.638-2.342-7.523-2.342-11.67   c0-4.139,0.78-8.026,2.342-11.66c1.559-3.631,3.707-6.808,6.42-9.527c2.715-2.715,5.897-4.876,9.531-6.468   C385.675,50.321,389.567,49.526,393.713,49.526z M393.713,61.245c-1.976,0-3.913,0.34-5.811,1.018   c-1.907,0.68-3.617,1.628-5.142,2.854c-1.532,1.222-2.842,2.645-3.929,4.276c-1.085,1.63-1.838,3.396-2.239,5.299h34.234   c-0.336-1.902-1.049-3.668-2.136-5.299c-1.089-1.631-2.409-3.053-3.977-4.276c-1.563-1.226-3.293-2.174-5.199-2.854   C397.615,61.585,395.678,61.245,393.713,61.245z M439.662,51.359h3.669c1.771,0,3.174,0.526,4.228,1.58   c1.051,1.051,1.583,2.495,1.583,4.336c0,1.63-0.532,3.005-1.583,4.122c-1.053,1.12-2.456,1.682-4.228,1.682h-3.669v27.093   c0,1.362,0.19,2.451,0.564,3.261c0.367,0.809,0.898,1.463,1.578,1.937c0.68,0.476,1.424,0.816,2.239,1.021   c0.816,0.2,1.7,0.343,2.648,0.409c1.568,0.13,2.772,0.726,3.617,1.781c0.853,1.052,1.279,2.46,1.279,4.23   c0,1.624-0.579,2.941-1.738,3.917c-1.154,0.989-2.848,1.481-5.095,1.481c-2.378,0-4.583-0.344-6.621-1.021   c-2.038-0.675-3.819-1.742-5.344-3.207c-1.531-1.464-2.725-3.327-3.571-5.604c-0.848-2.28-1.278-4.976-1.278-8.097v-27.2   c-1.562-0.206-2.761-0.853-3.616-1.938c-0.849-1.087-1.272-2.373-1.272-3.866c0-1.635,0.423-2.978,1.272-4.029   c0.855-1.054,2.053-1.645,3.616-1.783V34.239c0-1.829,0.563-3.273,1.687-4.331c1.116-1.049,2.495-1.572,4.124-1.572   c1.836,0,3.278,0.524,4.33,1.572c1.06,1.059,1.579,2.502,1.579,4.331V51.359z"></path>
	<g>
		<path class="st0" d="M466.251,59.044c0.031,2.04-1.769,3.722-4.017,3.757l-3.528,0.052c-2.248,0.037-4.101-1.591-4.132-3.629    l-0.418-27.243c-0.031-2.038,1.769-3.722,4.019-3.757l3.53-0.055c2.245-0.033,4.096,1.595,4.128,3.632L466.251,59.044z"></path>
		<path class="st0" d="M483.002,59.622c0,1.858-1.508,3.364-3.361,3.364h-5.192c-1.857,0-3.364-1.506-3.364-3.364V19.629    c0-1.858,1.507-3.364,3.364-3.364h5.192c1.853,0,3.361,1.507,3.361,3.364V59.622z"></path>
		<path class="st0" d="M488.14,3.932c0-1.858,1.711-3.363,3.823-3.363h4.715c2.107,0,3.822,1.506,3.822,3.363v55.444    c0,1.856-1.716,3.363-3.822,3.363h-4.715c-2.111,0-3.823-1.507-3.823-3.363V3.932z"></path>
	</g>
</g>
</svg>
